<?xml version="1.0" standalone="no"?><!DOCTYPE svg PUBLIC "-//W3C//DTD SVG 1.1//EN" "http://www.w3.org/Graphics/SVG/1.1/DTD/svg11.dtd"><svg t="1572527322781" class="icon" viewBox="0 0 1024 1024" version="1.1" xmlns="http://www.w3.org/2000/svg" p-id="2256" xmlns:xlink="http://www.w3.org/1999/xlink" width="200" height="200"><defs><style type="text/css"></style></defs><path d="M776.96 633.28L576 512a66.24 66.24 0 0 1-32-56.64V226.56a32 32 0 0 0-64 0v230.08a128 128 0 0 0 5.12 35.2l-212.48 142.4a32 32 0 1 0 35.52 53.12l208.96-139.84a128 128 0 0 0 26.24 20.8l200.96 119.68a32 32 0 0 0 32-55.04z m129.92-405.44L560.96 28.16a97.92 97.92 0 0 0-97.92 0L117.12 227.84a97.92 97.92 0 0 0-48.96 84.8v399.68a97.92 97.92 0 0 0 48.96 84.8l345.92 199.68a97.92 97.92 0 0 0 97.92 0l345.92-199.68a97.92 97.92 0 0 0 48.96-84.8V312.64a97.92 97.92 0 0 0-48.96-84.8z m-15.04 484.16a33.92 33.92 0 0 1-16.96 29.44l-345.92 200a33.92 33.92 0 0 1-33.92 0L149.12 741.44a33.92 33.92 0 0 1-16.96-29.44V312.64a33.92 33.92 0 0 1 16.96-29.44l345.92-199.36a33.92 33.92 0 0 1 33.92 0l345.92 199.68a33.92 33.92 0 0 1 16.96 29.44z" p-id="2257"></path></svg>