<svg t="1586314061185" class="icon" viewBox="0 0 1024 1024" version="1.1" xmlns="http://www.w3.org/2000/svg" p-id="2748" width="200" height="200"><path d="M941.714286 704h-61.714286V544H550.857143v-105.142857h272c10.057143 0 18.285714-8.228571 18.285714-18.285714V118.857143c0-10.057143-8.228571-18.285714-18.285714-18.285714H201.142857c-10.057143 0-18.285714 8.228571-18.285714 18.285714v301.714286c0 10.057143 8.228571 18.285714 18.285714 18.285714h272v105.142857H144v160h-61.714286c-5.028571 0-9.142857 4.114286-9.142857 9.142857v201.142857c0 5.028571 4.114286 9.142857 9.142857 9.142857h201.142857c5.028571 0 9.142857-4.114286 9.142858-9.142857V713.142857c0-5.028571-4.114286-9.142857-9.142858-9.142857h-61.714285v-82.285714h251.428571v82.285714h-61.714286c-5.028571 0-9.142857 4.114286-9.142857 9.142857v201.142857c0 5.028571 4.114286 9.142857 9.142857 9.142857h201.142858c5.028571 0 9.142857-4.114286 9.142857-9.142857V713.142857c0-5.028571-4.114286-9.142857-9.142857-9.142857h-61.714286v-82.285714h251.428571v82.285714h-61.714285c-5.028571 0-9.142857 4.114286-9.142858 9.142857v201.142857c0 5.028571 4.114286 9.142857 9.142858 9.142857h201.142857c5.028571 0 9.142857-4.114286 9.142857-9.142857V713.142857c0-5.028571-4.114286-9.142857-9.142857-9.142857zM219.428571 847.2c0 1.714286-1.371429 3.085714-3.085714 3.085714h-67.085714c-1.714286 0-3.085714-1.371429-3.085714-3.085714v-67.085714c0-1.714286 1.371429-3.085714 3.085714-3.085715h67.085714c1.714286 0 3.085714 1.371429 3.085714 3.085715v67.085714z m329.142858 0c0 1.714286-1.371429 3.085714-3.085715 3.085714h-67.085714c-1.714286 0-3.085714-1.371429-3.085714-3.085714v-67.085714c0-1.714286 1.371429-3.085714 3.085714-3.085715h67.085714c1.714286 0 3.085714 1.371429 3.085715 3.085715v67.085714zM256 365.714286V173.714286h512v192H256z m621.714286 481.485714c0 1.714286-1.371429 3.085714-3.085715 3.085714h-67.085714c-1.714286 0-3.085714-1.371429-3.085714-3.085714v-67.085714c0-1.714286 1.371429-3.085714 3.085714-3.085715h67.085714c1.714286 0 3.085714 1.371429 3.085715 3.085715v67.085714zM338.285714 269.714286a45.714286 45.714286 0 1 0 91.428572 0 45.714286 45.714286 0 1 0-91.428572 0z" p-id="2749"></path></svg>