<?xml version="1.0" standalone="no"?><!DOCTYPE svg PUBLIC "-//W3C//DTD SVG 1.1//EN" "http://www.w3.org/Graphics/SVG/1.1/DTD/svg11.dtd"><svg t="1573977495616" class="icon" viewBox="0 0 1024 1024" version="1.1" xmlns="http://www.w3.org/2000/svg" p-id="2217" xmlns:xlink="http://www.w3.org/1999/xlink" width="200" height="200"><defs><style type="text/css"></style></defs><path d="M1011.2 679.936c-6.144-29.696-30.208-52.224-59.904-56.832-4.608-0.512-8.192-3.072-10.752-6.656-2.048-3.584-2.048-8.192-0.512-12.288 10.752-28.16 2.56-59.392-19.456-79.36-30.208-27.136-65.536-47.616-104.448-59.904-28.16-9.216-59.392 0-78.336 23.04-2.56 3.584-6.656 5.632-11.264 5.632-4.096 0-8.192-2.048-11.264-5.632-18.944-23.04-50.176-32.256-78.336-23.04-38.912 12.288-74.24 32.768-104.448 59.904-22.016 19.968-29.696 51.2-19.456 79.36 1.536 4.096 1.536 8.704-0.512 12.288-2.56 3.584-6.144 6.144-10.752 6.656-29.696 4.608-53.248 27.136-59.392 56.832-8.704 39.424-8.704 80.384 0 119.808 6.144 29.696 30.208 52.224 59.904 56.832 4.608 0.512 8.192 3.072 10.752 6.656 2.048 3.584 2.56 8.192 0.512 12.288-10.752 28.16-3.072 59.392 19.456 79.36 30.208 27.136 65.024 47.616 104.448 59.904 28.16 9.216 59.392 0 78.336-23.04 2.56-3.584 6.656-5.632 11.264-5.632 5.12 0 8.704 3.072 11.264 5.632 18.944 23.04 50.176 32.256 78.336 23.04 38.4-12.288 74.24-32.768 104.448-59.904 22.016-19.968 29.696-51.712 19.456-79.36-1.536-4.096-1.536-8.704 0.512-12.288 2.56-3.584 6.144-6.144 10.752-6.656 29.696-4.608 53.76-27.136 59.904-56.832 4.096-19.968 6.144-39.936 6.144-59.904-0.512-19.456-2.56-39.936-6.656-59.904z m-71.168 104.96c-26.112 3.584-49.152 19.456-62.464 41.984-12.8 22.528-14.848 50.176-5.632 74.24-22.528 20.48-49.152 35.328-78.336 45.056-16.384-19.968-40.96-31.744-67.072-31.744-27.136 0-51.2 12.8-67.072 31.744-29.184-9.216-55.808-24.576-78.336-45.056 9.216-24.576 7.168-51.712-5.632-74.24-13.312-22.528-36.352-38.4-61.952-41.984-3.072-14.848-4.608-29.696-4.608-45.056 0-15.36 1.536-30.208 4.608-45.056 25.088-4.096 48.128-18.432 61.952-41.984 13.824-23.552 14.336-50.688 5.632-74.24 22.528-20.48 49.152-35.328 78.336-45.056 15.872 19.456 39.936 31.744 67.072 31.744s51.2-12.8 67.072-31.744c29.184 9.728 55.808 24.576 78.336 45.056-9.216 24.576-7.168 51.712 5.632 74.24 13.824 23.552 36.864 38.4 62.464 41.984 3.072 14.336 4.608 29.696 4.608 45.056 0.512 15.36-1.536 30.208-4.608 45.056z m-212.992-153.6c-59.904 0-108.544 48.64-108.544 108.544s48.64 108.544 108.544 108.544 109.056-48.64 109.056-108.544c-0.512-59.904-49.152-108.544-109.056-108.544z m0 144.896c-19.968 0-36.352-16.384-36.352-36.352s16.384-36.352 36.352-36.352c19.968 0 36.352 16.384 36.352 36.352s-16.384 36.352-36.352 36.352z m4.096-518.144c0-19.968-16.384-36.352-36.352-36.352H186.88c-19.968 0-36.352 16.384-36.352 36.352s16.384 36.352 36.352 36.352h507.392c20.48 0 36.864-16.384 36.864-36.352zM440.832 475.648c0-19.968-16.384-36.352-36.352-36.352H186.88c-19.968 0-36.352 16.384-36.352 36.352 0 19.968 16.384 36.352 36.352 36.352H404.48c19.968 0 36.352-16.384 36.352-36.352z m-253.952 181.248c-19.968 0-36.352 16.384-36.352 36.352s16.384 36.352 36.352 36.352h144.896c19.968 0 36.352-16.384 36.352-36.352s-16.384-36.352-36.352-36.352H186.88z m218.624 219.136H110.08c-16.896 0-31.232-16.384-31.232-36.352V113.664c0-19.968 13.824-36.352 31.232-36.352H773.12c16.896 0 31.232 16.384 31.232 36.352V404.48c0 19.968 16.384 36.352 36.352 36.352s36.352-16.384 36.352-36.352V77.824c0-39.936-28.672-72.704-63.488-72.704H70.144C34.816 5.12 6.656 37.888 6.656 77.824v798.72c0 39.936 28.672 72.704 63.488 72.704h335.36c19.968 0 36.352-16.384 36.352-36.352s-16.384-36.864-36.352-36.864z" p-id="2218"></path></svg>