<?xml version="1.0" standalone="no"?><!DOCTYPE svg PUBLIC "-//W3C//DTD SVG 1.1//EN" "http://www.w3.org/Graphics/SVG/1.1/DTD/svg11.dtd"><svg t="1572836905198" class="icon" viewBox="0 0 1024 1024" version="1.1" xmlns="http://www.w3.org/2000/svg" p-id="8648" xmlns:xlink="http://www.w3.org/1999/xlink" width="200" height="200"><defs><style type="text/css"></style></defs><path d="M320 576v256h384V576H320z m320 192H384V640h256v128z" p-id="8649"></path><path d="M960 384V192c0-35.2-28.8-64-64-64H448V64c0-35.2-28.8-64-64-64H211.2L64 163.2V384c-35.2 0-64 28.8-64 64v512c0 35.2 28.8 64 64 64h896c35.2 0 64-28.8 64-64V448c0-35.2-28.8-64-64-64z m-64-192v192H704V192h192z m-256 0v192H448V192h192z m-512-3.2L240 64h144v320H128V188.8zM960 960H64V448h896v512z" p-id="8650"></path></svg>