<?xml version="1.0" standalone="no"?><!DOCTYPE svg PUBLIC "-//W3C//DTD SVG 1.1//EN" "http://www.w3.org/Graphics/SVG/1.1/DTD/svg11.dtd"><svg t="1572527423187" class="icon" viewBox="0 0 1024 1024" version="1.1" xmlns="http://www.w3.org/2000/svg" p-id="4190" xmlns:xlink="http://www.w3.org/1999/xlink" width="200" height="200"><defs><style type="text/css"></style></defs><path d="M513.3 192.8l320.1 292.6c-16.3 2-31.6 8.7-43.8 19.4l-0.2 0.2-0.2 0.2c-11.8 10.5-25.8 29-25.8 58.1v272.5H646.2V720c0-43.5-36-78.8-80.3-78.8H460.3c-44.3 0-80.3 35.4-80.3 78.8v115.7H264.2v-273c0-40-30.5-73.2-69.9-78.2l319-291.7m0-64.8c-11.2 0-22.4 3.8-30.4 11.3L114.6 476c-13.2 11.3-17 28.3-9.9 43.8 7.1 15.1 22.2 24 39.6 24h39.6c11.3 0 20.3 8.5 20.3 18.8V856c0 21.7 19.3 39.6 42.9 39.6h150c23.6 0 42.9-17.9 42.9-39.6V720c0-10.4 9-18.8 20.3-18.8h105.6c11.3 0 20.3 8.5 20.3 18.8v136.1c0 21.7 19.3 39.6 43.4 39.6h150c24.1 0 43.9-17.9 43.9-39.6v-293c0-5.6 1.4-9.4 5.7-13.2 3.8-3.3 9-5.2 14.6-5.2H881c17.5 0 32.5-9.4 39.6-24 8-15.5 4.2-33-8-44.3L543.8 139.3c-8-7.5-19.3-11.3-30.5-11.3z" p-id="4191"></path></svg>