<?xml version="1.0" standalone="no"?><!DOCTYPE svg PUBLIC "-//W3C//DTD SVG 1.1//EN" "http://www.w3.org/Graphics/SVG/1.1/DTD/svg11.dtd"><svg t="1572866125492" class="icon" viewBox="0 0 1024 1024" version="1.1" xmlns="http://www.w3.org/2000/svg" p-id="12712" xmlns:xlink="http://www.w3.org/1999/xlink" width="200" height="200"><defs><style type="text/css"></style></defs><path d="M716.996201 102.663483 303.250241 102.663483c-27.141894 0-49.14734 22.005446-49.14734 49.148469l0 720.907804c0 27.144152 22.004317 49.143953 49.14734 49.143953l413.74596 0c27.144152 0 49.143953-21.999802 49.143953-49.143953L766.140154 151.811952C766.140154 124.668929 744.140353 102.663483 716.996201 102.663483zM305.226927 205.080868 714.902111 205.080868l0 102.406096L305.226927 307.486964 305.226927 205.080868zM458.903804 870.657274l-102.41174 0 0-51.174826 102.41174 0L458.903804 870.657274zM436.406162 665.8575c0-40.707761 33.000831-73.713108 73.713108-73.713108 40.712276 0 73.719881 33.005347 73.719881 73.713108 0 40.711148-33.006476 73.711979-73.719881 73.711979C469.408122 739.569479 436.406162 706.569776 436.406162 665.8575zM663.720512 870.657274l-102.412869 0 0-51.174826 102.412869 0L663.720512 870.657274zM714.958555 461.105139l-409.674055 0 0-102.406096 409.674055 0L714.958555 461.105139z" p-id="12713"></path></svg>