<svg data-noselect="" viewBox="0 0 400 300" width="400" height="300" preserveAspectRatio="none" version="1.1" xmlns="http://www.w3.org/2000/svg" style="background: rgba(255, 255, 255, 0);"><defs></defs> <g id="shape_EpVSXDeCi5" transform="translate(88.29787234042553,38.297872340425535) rotate(0,87.5,87.5) scale(1.2765957446808511,1.2765957446808511)" filter="" style="cursor: move; opacity: 1;"><g><rect fill="rgba(0,0,0,0)" width="195" height="195" x="-10" y="-10"></rect><svg version="1.1" id="图层_1" xmlns="http://www.w3.org/2000/svg" xmlns:xlink="http://www.w3.org/1999/xlink" x="0px" y="0px" style="enable-background:new 0 0 283.46 283.46;" xml:space="preserve" viewBox="54.22999954223633 77.69599914550781 175 175.00100708007812" width="175" height="175" preserveAspectRatio="none" data-parent="shape_EpVSXDeCi5">
<g>
	<g>
		<path style="" d="M209.443,218.416c-1.341,0-2.621-0.775-3.201-2.08L151.607,93.321
			c-1.608-3.758-5.441-6.159-9.784-6.159c-4.229,0-7.987,2.399-9.575,6.113L88.47,190.643c-0.793,1.763-2.866,2.549-4.627,1.757
			c-1.763-0.793-2.55-2.865-1.757-4.627l43.753-97.309c2.666-6.234,8.951-10.301,15.985-10.301c7.148,0,13.507,4.067,16.2,10.362
			l54.616,122.971c0.785,1.767-0.011,3.834-1.778,4.619C210.4,218.319,209.917,218.416,209.443,218.416z M159.6,175.519
			c-1.352,0-2.639-0.787-3.212-2.105l-14.587-33.549l-12.571,28.654h12.493c1.933,0,3.5,1.567,3.5,3.5s-1.567,3.5-3.5,3.5h-17.851
			c-1.182,0-2.284-0.596-2.93-1.586c-0.646-0.989-0.75-2.238-0.275-3.32l17.943-40.898c0.558-1.272,1.816-2.094,3.205-2.094
			c0.002,0,0.004,0,0.006,0c1.391,0.002,2.649,0.829,3.204,2.104l17.782,40.898c0.771,1.772-0.042,3.834-1.814,4.605
			C160.539,175.425,160.066,175.519,159.6,175.519z" fill="#009FE8"></path>
	</g>
	<g>
		<path style="" d="M141.73,252.697c-17.187,0-33.824-4.98-48.111-14.403c-1.044-0.688-1.642-1.882-1.567-3.131
			c0.028-0.478,0.154-0.936,0.36-1.351l15.914-36.735c0.554-1.28,1.816-2.109,3.211-2.109h60.385c1.395,0,2.657,0.829,3.211,2.108
			l9.137,21.089c0.769,1.774-0.046,3.834-1.82,4.603c-1.773,0.771-3.834-0.047-4.603-1.82l-8.223-18.98h-55.789L99.951,234.02
			c12.569,7.648,26.951,11.676,41.779,11.676c15.812,0,31.116-4.58,44.256-13.245c1.613-1.065,3.785-0.619,4.849,0.995
			c1.064,1.614,0.619,3.785-0.995,4.849C175.552,247.717,158.916,252.697,141.73,252.697z" fill="#0DAC67"></path>
	</g>
	<g>
		<path style="" d="M73.831,218.156c-1.08,0-2.145-0.498-2.83-1.438c-10.971-15.035-16.771-32.851-16.771-51.522
			c0-48.248,39.252-87.5,87.5-87.5s87.5,39.252,87.5,87.5c0,18.505-5.706,36.194-16.501,51.153c-1.132,1.567-3.319,1.922-4.887,0.79
			c-1.567-1.131-1.921-3.318-0.79-4.886c9.929-13.759,15.178-30.031,15.178-47.057c0-44.388-36.112-80.5-80.5-80.5
			s-80.5,36.112-80.5,80.5c0,17.178,5.334,33.567,15.425,47.396c1.14,1.562,0.797,3.751-0.764,4.89
			C75.269,217.937,74.546,218.156,73.831,218.156z" fill="#009FE8"></path>
	</g>
	<g>
		<circle style="" cx="181.059" cy="219.557" r="6.854" fill="#0DAC67"></circle>
	</g>
	<g>
		<circle style="" cx="159.598" cy="172.018" r="6.853" fill="#009FE8"></circle>
	</g>
	<g>
		<circle style="" cx="85.278" cy="190.068" r="6.853" fill="#009FE8"></circle>
	</g>
</g>
</svg></g> <!----></g>  <!----></svg>