<svg data-noselect="" viewBox="0 0 400 300" width="400" height="300" preserveAspectRatio="none" version="1.1" xmlns="http://www.w3.org/2000/svg" style="background: rgba(255, 255, 255, 0);"><defs></defs> <g id="shape_RIJE73ismg" transform="translate(76.08695652173914,65.21739130434783) rotate(0,57,39) scale(2.1739130434782608,2.1739130434782608)" filter="" style="cursor: move; opacity: 1;"><g><rect fill="rgba(0,0,0,0)" width="134" height="98" x="-10" y="-10"></rect><svg version="1.1" id="图层_1" xmlns="http://www.w3.org/2000/svg" xmlns:xlink="http://www.w3.org/1999/xlink" x="0px" y="0px" style="enable-background:new 0 0 283.46 226.77;" xml:space="preserve" viewBox="84.36798095703125 74.02200317382812 114.14201354980469 78.5830078125" width="114" height="78" preserveAspectRatio="none" data-parent="shape_RIJE73ismg">
<g>
	<g>
		<linearGradient id="SVGID_1_" gradientUnits="userSpaceOnUse" x1="158.2153" y1="132.2836" x2="158.2153" y2="153.7935">
			<stop offset="0" style="" stop-color="#28569E"></stop>
			<stop offset="1" style="" stop-color="#34B5B5"></stop>
		</linearGradient>
		<path style="" d="M159.68,131.929c-4.398,1.148-8.853,2.066-13.277,2.223l3.961,7.91l5.276,10.543h14.389
			L159.68,131.929z" fill="url(#SVGID_1_)"></path>
		<linearGradient id="SVGID_2_" gradientUnits="userSpaceOnUse" x1="103.1142" y1="132.284" x2="103.1142" y2="153.7936">
			<stop offset="0" style="" stop-color="#28569E"></stop>
			<stop offset="1" style="" stop-color="#34B5B5"></stop>
		</linearGradient>
		<path style="" d="M101.039,133.281l-9.673,19.323h14.389l5.278-10.543l3.829-7.653
			c-0.976-0.012-1.952-0.034-2.92-0.075C108.469,134.18,104.798,133.931,101.039,133.281z" fill="url(#SVGID_2_)"></path>
	</g>
	<linearGradient id="SVGID_3_" gradientUnits="userSpaceOnUse" x1="130.9814" y1="72.1824" x2="130.9814" y2="121.6742">
		<stop offset="0" style="" stop-color="#F2C222"></stop>
		<stop offset="0.153" style="" stop-color="#F1BD24"></stop>
		<stop offset="0.3922" style="" stop-color="#EEAD27"></stop>
		<stop offset="0.6873" style="" stop-color="#EA912A"></stop>
		<stop offset="1" style="" stop-color="#E66A2B"></stop>
	</linearGradient>
	<path style="" d="M121.328,115.467c1.067-0.127,2.118-0.216,3.159-0.286l6.211-12.41l6.093,12.173
		c2.943-0.045,5.863-0.176,8.964-0.628c1.359-0.177,2.681-0.29,3.968-0.338c0.205-0.032,0.393-0.039,0.566-0.039
		c0.107-0.043,0.225-0.066,0.337-0.098l-0.263-0.528l-19.665-39.291l-19.361,38.683C114.82,114.313,118.06,115.819,121.328,115.467z
		" fill="url(#SVGID_3_)"></path>
	
		<linearGradient id="SVGID_4_" gradientUnits="userSpaceOnUse" x1="-1.841" y1="-277.8635" x2="49.4319" y2="-277.8635" gradientTransform="matrix(2.2113 0.0236 -0.1426 -1.7509 48.9774 -364.3783)">
		<stop offset="0" style="" stop-color="#29A4B0"></stop>
		<stop offset="0.1321" style="" stop-color="#3AA6AB"></stop>
		<stop offset="0.3385" style="" stop-color="#58A99B"></stop>
		<stop offset="0.5933" style="" stop-color="#7BAE80"></stop>
		<stop offset="0.8841" style="" stop-color="#A1B457"></stop>
		<stop offset="1" style="" stop-color="#AFB741"></stop>
	</linearGradient>
	<path style="" d="M92.891,113.621c0.894-0.047,1.777,0.282,2.586,0.758c1.733,0.996,3.498-1.392,5.16-0.253
		c2.118,1.414,4.511-0.545,6.755,0.473c4.146,1.869,8.402,4.186,12.845,3.703c8.403-0.991,15.864,0.1,24.511-1.158
		c1.265-0.167,2.569-0.28,3.896-0.325c0.32-0.114,2.095,0.172,1.234-0.224l1.588-0.258c2.116-0.306,4.082-0.126,6.251-0.138
		c3.024,0.334,9.409-1.691,12.642,0.674c-3.987-0.534-7.866,1.063-11.409,2.181c7.927,0.5,16.891-1.364,25.914,0.217
		c-17.291-1.467-30.17,4.686-46.787,8.997c18.129,2.559,38.972-11.869,56.734-2.529c1.265,0.649,2.621,1.739,3.542,2.99
		c-16.956-13.781-37.574,3.286-56.636,2.028c-8.127,0.452-16.076,1.191-24.258,0.276c-2.224,0.056-4.517,0.031-6.766-0.065
		c-4.634-0.205-9.344-0.574-14.011-1.724c-4.109-0.901-11.654-2.521-12.314-9.149c1.346-0.004,2.707,1.01,4.031,0.783
		c-0.408-0.66-0.867-1.454-1.379-1.944c0.534,0.114,1.158,0.002,1.608,0.455c-0.371-0.405-0.744-0.881-0.82-1.555
		C92.891,113.621,83.943,112.458,92.891,113.621L92.891,113.621" fill="url(#SVGID_4_)"></path>
	<linearGradient id="SVGID_5_" gradientUnits="userSpaceOnUse" x1="84.5225" y1="125.0443" x2="198.5059" y2="125.0443">
		<stop offset="0" style="" stop-color="#28569E"></stop>
		<stop offset="1" style="" stop-color="#34B5B5"></stop>
	</linearGradient>
	<path style="" d="M194.965,125.738c-17.764-9.339-38.605,5.088-56.735,2.529
		c16.618-4.311,29.496-10.464,46.787-8.997c-8.331-1.46-16.606,0.014-24.066-0.145c-0.231,0.016-0.461,0.045-0.694,0.056
		c-3.82,0.179-7.482,0.931-11.332,0.931c-3.202,0-6.372,0.022-9.501,0.377c0.678,0.711,3.782,0.241,4.989,0.241
		c1.609,0,4.724-0.575,6.104,0.242c-2.494,0.826-5.265,0.499-7.898,0.871c-2.759,0.39-5.498,0.588-8.321,0.588
		c-5.643,0-11.012-0.772-16.638-0.772c-4.664,0-9.211-0.31-13.921-0.31c-1.405,0-2.81,0-4.214,0c-1.401,0-3.843-0.767-4.902-0.043
		c2.646,0.987,5.763,1.037,8.533,1.519c1.813,0.315,3.539,0.54,5.392,0.534c1.575-0.004,2.946,0.116,4.463,0.392
		c1.395,0.252,3.876,0.071,4.936,1.015c-0.766,0.311-1.851,0.022-2.764-0.019c-2.174-0.097-4.374,0.004-6.55,0.004
		c-3.729,0-6.958-0.29-10.498-1.116c-2.811-0.657-5.42-0.346-7.732-1.95c-0.623-0.432-1.334-0.811-2.066-1.165
		c0.074,0.12,0.149,0.242,0.22,0.357c-1.325,0.227-2.686-0.787-4.031-0.783c0.66,6.629,8.204,8.248,12.314,9.149
		c4.666,1.149,9.376,1.519,14.011,1.724c2.249,0.097,4.542,0.121,6.765,0.065c8.182,0.915,16.13,0.176,24.259-0.276
		c19.061,1.257,39.679-15.81,56.635-2.028C197.584,127.477,196.228,126.387,194.965,125.738z" opacity="0.5" fill="url(#SVGID_5_)"></path>
</g>
</svg></g> <!----></g>  <!----></svg>