<?xml version="1.0" standalone="no"?><!DOCTYPE svg PUBLIC "-//W3C//DTD SVG 1.1//EN" "http://www.w3.org/Graphics/SVG/1.1/DTD/svg11.dtd"><svg t="1572836797557" class="icon" viewBox="0 0 1024 1024" version="1.1" xmlns="http://www.w3.org/2000/svg" p-id="7907" xmlns:xlink="http://www.w3.org/1999/xlink" width="200" height="200"><defs><style type="text/css"></style></defs><path d="M933.376 34.304H90.624C40.448 34.304 0 74.752 0 124.416v531.456c0 49.664 40.448 90.624 90.624 90.624h388.096v176.64H122.368c-18.432 0-33.28 14.848-33.28 33.28s14.848 33.28 33.28 33.28h779.264c18.432 0 33.28-14.848 33.28-33.28s-14.848-33.28-33.28-33.28h-356.352v-176.64h388.096c49.664 0 90.624-40.448 90.624-90.624V124.416c0-49.664-40.448-90.112-90.624-90.112z m24.064 617.984c0 16.384-13.312 29.696-29.696 29.696H96.256c-16.384 0-29.696-13.312-29.696-29.696V128.512c0-16.384 13.312-29.696 29.696-29.696h831.488c16.384 0 29.696 13.312 29.696 29.696v523.776z" p-id="7908"></path><path d="M761.856 302.592c-5.632-6.144-13.824-9.216-21.504-8.192-8.192 1.024-15.36 5.632-19.968 12.288l-111.616 171.008-66.56-250.88c-3.072-10.752-11.264-18.944-21.504-20.992-10.24-2.048-20.992 2.56-27.136 11.776L347.648 432.128 275.968 348.16c-9.728-11.264-25.6-12.8-37.376-3.584L154.112 414.72c-12.288 10.24-14.336 28.672-5.12 41.472 9.216 12.8 26.624 15.36 38.4 5.12l64.512-53.248 77.824 90.624c5.632 6.656 13.312 10.24 22.016 9.728 8.192-0.512 15.872-5.12 20.48-12.288l132.096-194.56 67.072 251.904c3.072 10.752 11.264 18.944 22.016 20.992 1.536 0.512 3.072 0.512 4.608 0.512 8.704 0 17.408-4.608 22.528-12.8L746.496 368.64l87.04 90.112c10.752 11.264 28.672 11.264 38.912-0.512 10.752-11.776 10.24-30.208-0.512-41.984l-110.08-113.664z" p-id="7909"></path></svg>