<?xml version="1.0" standalone="no"?><!DOCTYPE svg PUBLIC "-//W3C//DTD SVG 1.1//EN" "http://www.w3.org/Graphics/SVG/1.1/DTD/svg11.dtd"><svg t="1576244293536" class="icon" viewBox="0 0 1024 1024" version="1.1" xmlns="http://www.w3.org/2000/svg" p-id="1870" xmlns:xlink="http://www.w3.org/1999/xlink" width="200" height="200"><defs><style type="text/css"></style></defs><path d="M512 7.850667C233.472 7.850667 7.850667 233.472 7.850667 512S233.472 1016.149333 512 1016.149333 1016.149333 790.528 1016.149333 512 790.528 7.850667 512 7.850667z m0 943.786666c-79.189333 0-143.36-52.906667-143.36-118.101333h286.72c0 65.194667-64.170667 118.101333-143.36 118.101333z m237.226667-157.696h-474.453334v-86.016h474.112v86.016z m-1.706667-130.048H276.48l-4.778667-5.461333c-48.469333-59.050667-60.074667-89.770667-70.997333-120.832-0.341333-1.024 58.709333 11.946667 100.693333 21.504 0 0 21.504 5.12 52.906667 10.581333-30.378667-35.498667-48.128-80.554667-48.128-126.634666 0-101.034667 77.482667-189.44 49.493333-260.778667 27.306667 2.048 56.32 57.344 58.368 143.701333 29.013333-39.936 40.96-112.981333 40.96-157.696 0-46.421333 30.72-100.352 61.098667-102.058666-27.306667 45.056 7.168 83.626667 37.546667 178.858666 11.605333 35.84 9.898667 96.256 18.773333 134.485334 3.072-79.530667 16.725333-195.584 66.901333-235.52-22.186667 50.517333 3.072 113.664 20.821334 143.701333 28.330667 48.810667 45.397333 86.016 45.397333 155.989333 0 47.104-17.408 91.136-46.762667 125.952 33.450667-6.144 56.32-11.946667 56.32-11.946666l108.202667-21.162667c0.341333 0.682667-15.36 65.194667-75.776 127.317333z" p-id="1871"></path></svg>