<?xml version="1.0" standalone="no"?><!DOCTYPE svg PUBLIC "-//W3C//DTD SVG 1.1//EN" "http://www.w3.org/Graphics/SVG/1.1/DTD/svg11.dtd"><svg t="1573999308426" class="icon" viewBox="0 0 1024 1024" version="1.1" xmlns="http://www.w3.org/2000/svg" p-id="4449" xmlns:xlink="http://www.w3.org/1999/xlink" width="200" height="200"><defs><style type="text/css"></style></defs><path d="M554.750491 543.182711c0-20.117878-16.094303-41.24165-44.259332-41.24165-25.147348 0-41.24165 16.094303-41.24165 41.24165 0 7.041257 0 16.094303 5.02947 23.13556 2.011788 5.02947 12.070727 7.041257 12.070727 14.082515 0 5.02947-21.123772 41.24165-21.123772 45.265226 0 7.041257 2.011788 5.02947 2.011788 7.041257l90.530452 0 2.011788-7.041257c0-5.02947-21.123772-41.24165-21.123772-45.265226C538.656189 570.341847 554.750491 558.27112 554.750491 543.182711z" p-id="4450"></path><path d="M909.831041 104.612967l-53.312377 0c-83.489194 0-235.379175-39.229862-295.732809-79.465619C545.697446 16.094303 528.59725 0 510.491159 0c-11.064833 0-83.489194 43.253438-99.583497 50.294695-28.165029 11.064833-55.324165 20.117878-80.471513 27.159136-16.094303 4.023576-32.188605 9.053045-48.282908 11.064833C244.935167 95.559921 205.705305 100.589391 166.475442 104.612967L111.151277 104.612967c-14.082515 0-25.147348 20.117878-25.147348 27.159136l2.011788 116.683694C98.074656 334.962672 104.11002 426.499018 125.233792 513.005894c23.13556 93.548134 53.312377 194.137525 110.64833 284.667976 18.10609 32.188605 46.27112 61.359528 69.40668 93.548134 21.123772 32.188605 163.960707 131.772102 205.202358 131.772102 16.094303 0 67.394892-27.159136 73.430255-29.170923 217.273084-122.719057 281.650295-347.033399 318.868369-513.005894 16.094303-75.442043 25.147348-161.948919 32.188605-235.379175l2.011788-79.465619C937.996071 150.884086 940.007859 111.654224 909.831041 104.612967zM704.628684 681.996071c-2.011788 9.053045-21.123772 41.24165-39.229862 41.24165L355.583497 723.237721c-19.111984-2.011788-38.223969-23.13556-37.218075-38.223969L318.365422 467.740668c5.02947-27.159136 23.13556-38.223969 48.282908-43.253438l0-98.577603c18.10609-88.518664 80.471513-120.707269 142.836935-120.707269 50.294695 0 103.607073 18.10609 133.78389 86.506876 5.02947 9.053045 11.064833 29.170923 11.064833 36.212181l0 95.559921c16.094303 2.011788 48.282908 25.147348 48.282908 43.253438L702.616896 681.996071z" p-id="4451"></path><path d="M510.491159 275.614931c-32.188605 0-62.365422 16.094303-71.418468 64.37721l0 84.495088 145.854617 0 0-84.495088C583.921415 303.779961 545.697446 275.614931 510.491159 275.614931z" p-id="4452"></path></svg>