<?xml version="1.0" standalone="no"?><!DOCTYPE svg PUBLIC "-//W3C//DTD SVG 1.1//EN" "http://www.w3.org/Graphics/SVG/1.1/DTD/svg11.dtd"><svg t="1589980657096" class="icon" viewBox="0 0 1024 1024" version="1.1" xmlns="http://www.w3.org/2000/svg" p-id="1950" xmlns:xlink="http://www.w3.org/1999/xlink" width="200" height="200"><defs><style type="text/css"></style></defs><path d="M688 80v44.992a180.672 180.672 0 0 0-72.992 30.016l-33.024-31.008-44 47.008 32 29.984a180 180 0 0 0-28.992 71.008H496v64h44.992c4.672 26.528 15.168 50.752 30.016 72l-34.016 32.992 46.016 46.016 32.992-34.016a179.776 179.776 0 0 0 72 30.016V528h64v-44.992a180 180 0 0 0 71.008-28.992l29.984 32 47.008-44.032-31.008-32.96c15.072-21.44 25.28-46.24 30.016-73.024H944v-64h-44.992a179.776 179.776 0 0 0-30.016-72l30.016-30.016-45.024-44.992-29.984 30.016a179.776 179.776 0 0 0-72-30.016V80h-64z m32 106.016A117.248 117.248 0 0 1 838.016 304a117.248 117.248 0 0 1-118.016 118.016A117.248 117.248 0 0 1 601.984 304 117.248 117.248 0 0 1 720 185.984zM304.992 374.976l-59.008 24 23.04 57.984a221.12 221.12 0 0 0-75.04 74.016l-56.96-23.008-24 59.008 56.96 22.976a216.832 216.832 0 0 0-6.976 53.024c0 18.24 2.72 36.032 6.976 52.992l-56.96 23.008 24 58.976 56.96-22.976a219.872 219.872 0 0 0 75.008 74.976l-23.008 57.024 59.008 24 23.008-57.024a215.36 215.36 0 0 0 52.992 7.04c18.24 0 36.096-2.752 52.992-7.04l23.04 57.024 58.976-24-23.008-57.024a221.12 221.12 0 0 0 74.016-74.976l57.984 22.976 24-58.976-57.984-23.008c4.224-16.96 6.976-34.784 6.976-52.992 0-18.24-2.752-36.096-6.976-53.024l57.984-22.976-24-59.008-57.984 23.008a220 220 0 0 0-74.016-74.016l23.008-57.984-59.008-24-23.008 57.984a216.896 216.896 0 0 0-52.992-7.008c-18.24 0-36.032 2.784-52.992 7.04l-23.008-58.016z m76 115.008a152.096 152.096 0 0 1 152.992 152.96c0 85.248-67.776 154.016-152.96 154.016a153.792 153.792 0 0 1-154.016-153.984c0-85.216 68.8-153.024 153.984-153.024z" p-id="1951"></path></svg>