<?xml version="1.0" standalone="no"?><!DOCTYPE svg PUBLIC "-//W3C//DTD SVG 1.1//EN" "http://www.w3.org/Graphics/SVG/1.1/DTD/svg11.dtd"><svg t="1572787842777" class="icon" viewBox="0 0 1024 1024" version="1.1" xmlns="http://www.w3.org/2000/svg" p-id="3589" xmlns:xlink="http://www.w3.org/1999/xlink" width="200" height="200"><defs><style type="text/css"></style></defs><path d="M951.099338 72.900662H72.900662A73.465784 73.465784 0 0 0 0 146.366446v731.267108a73.465784 73.465784 0 0 0 72.900662 73.465784h878.198676a73.465784 73.465784 0 0 0 72.900662-73.465784V146.366446a73.465784 73.465784 0 0 0-72.900662-73.465784z m-110.198676 73.465784a36.732892 36.732892 0 1 1-36.16777 36.732892 36.732892 36.732892 0 0 1 36.16777-36.732892z m-145.801324 0a36.732892 36.732892 0 1 1-36.732892 36.732892 36.732892 36.732892 0 0 1 36.732892-36.732892z m-146.366446 0a36.732892 36.732892 0 1 1-36.732892 36.732892 36.732892 36.732892 0 0 1 36.732892-36.732892z m406.322296 697.924945a38.993377 38.993377 0 0 1-38.993378 38.993377H106.807947a38.993377 38.993377 0 0 1-38.993377-38.993377V293.863135h887.240618zM202.313466 791.169978a36.16777 36.16777 0 0 0 51.99117 0l182.534216-182.534216a37.298013 37.298013 0 0 0 0-51.99117L254.304636 374.110375a36.732892 36.732892 0 0 0-53.121413 50.295806l157.103753 156.538631-155.97351 158.799117a36.732892 36.732892 0 0 0 0 51.426049z m258.825607-25.430464a36.732892 36.732892 0 0 0 36.732892 36.167771H791.169978a36.732892 36.732892 0 1 0 0-72.900662H497.871965a36.732892 36.732892 0 0 0-36.732892 36.732891z" p-id="3590"></path></svg>