<?xml version="1.0" standalone="no"?><!DOCTYPE svg PUBLIC "-//W3C//DTD SVG 1.1//EN" "http://www.w3.org/Graphics/SVG/1.1/DTD/svg11.dtd"><svg t="1586420831753" class="icon" viewBox="0 0 1024 1024" version="1.1" xmlns="http://www.w3.org/2000/svg" p-id="3744" xmlns:xlink="http://www.w3.org/1999/xlink" width="200" height="200"><defs><style type="text/css"></style></defs><path d="M219.9808 107.52C110.046208 107.52 20.48 196.708352 20.48 306.432v411.136c0 109.723648 89.566208 198.912 199.5008 198.912h584.0384c109.934592 0 199.5008-89.188352 199.5008-198.912v-411.136c0-109.723648-89.566208-198.912-199.5008-198.912H219.9808z m0 61.44h584.0384C881.094144 168.96 942.08 229.798912 942.08 306.432v411.136c0 76.633088-60.985856 137.472-138.0608 137.472H219.9808C142.905856 855.04 81.92 794.201088 81.92 717.568v-411.136C81.92 229.798912 142.905856 168.96 219.9808 168.96z m37.448192 51.643904c-0.014848 11.862016 0.003584 23.725056 0.033792 35.587072-10.116096 2.86208-19.359744 6.85568-28.089856 11.74784l-25.515008-25.207808-47.70816 47.98464 25.512448 25.2032a126.1696 126.1696 0 0 0-11.462144 27.971072l-36.140032 0.06656V411.53536l36.516864-0.131072c3.339264 13.24032 10.607616 25.143808 17.846272 35.787264V388.897792l-31.921152 0.114176v-22.654976l31.76192-0.056832 1.783296-9.03168c2.599936-13.172736 7.74912-25.729024 15.147008-36.964352l5.060608-7.686144-22.316032-22.045184 16.06144-16.1536 22.355968 22.086656 7.607808-5.076992c11.626496-7.670784 24.34304-12.811776 37.023744-15.490048l8.964096-1.860608-0.080896-31.030272h23.072768l-0.177664 30.86848h60.541952c-5.679104-6.77888-29.21472-15.60064-37.99552-18.05824l0.2048-35.253248c-25.136128-0.000512-44.842496 0.001024-68.08832-0.001024zM321.28 285.257216l0.093184 35.585024c-10.11712 2.86208-19.36128 6.85568-28.091392 11.748864l-25.515008-25.20832-47.708672 47.985152 25.51296 25.2032a126.162944 126.162944 0 0 0-11.463168 27.97056l-36.139008 0.065536v67.580928l36.516864-0.131072c2.874368 10.021376 6.859264 19.172864 11.742208 27.81184l-26.12736 26.02496 48.24064 47.4112 26.033664-25.912832a126.682112 126.682112 0 0 0 28.224 11.471872l0.016896 36.777984c23.209472 0.203264 47.919616 0.097792 67.755008 0.095744v-37.212672c10.124288-2.854912 19.39712-6.877696 28.12928-11.76832l26.012672 25.648128 47.740416-47.924736-26.066944-25.688064a126.455808 126.455808 0 0 0 11.476992-28.020224l35.387904-0.219136V407.037952l-35.785216 0.217088c-2.876416-10.031104-6.803968-19.119616-11.751936-27.815936l24.726016-24.788992-48.212992-47.492096-24.69376 24.778752a127.807488 127.807488 0 0 0-28.11136-11.425792l0.203264-35.25376H321.28z m22.500864 22.443008h23.07328l-0.178176 30.86848 9.113088 1.788416c13.232128 2.596352 25.915392 7.739392 37.195776 15.091712l7.638016 4.9792 21.55008-21.622784 16.228864 15.98464-21.5808 21.636096 5.193216 7.664128c7.61856 11.501056 12.672512 23.933952 15.525888 36.736l1.876992 8.979968 31.188992-0.18944v22.631424l-31.014912 0.190976-1.781248 8.98048a104.07424 104.07424 0 0 1-15.164928 36.998656l-5.06624 7.69536 22.846464 22.514688-16.058368 16.119808-22.848-22.528-7.596032 5.04576c-11.63008 7.60064-24.244736 12.864-36.973056 15.45728l-9.024 1.80224v32.77056c-6.168576 0.01536-12.89728 0.00512-22.880768-0.008704l-0.01536-32.525312-9.063424-1.769984c-13.25056-2.587648-25.91232-7.706624-37.173248-15.089664l-7.616-4.994048-22.936064 22.831104-16.230912-15.952384 22.96832-22.87872-5.241344-7.696384c-7.62624-11.475456-12.670976-23.921664-15.52896-36.708864l-1.875968-8.952832-31.921152 0.113664v-22.653952l31.76192-0.057856 1.783296-9.031168a103.783424 103.783424 0 0 1 15.147008-36.964864l5.06112-7.686144L251.84768 355.2256l16.059904-16.1536 22.356992 22.086656 7.60832-5.075968c11.640832-7.62112 23.994368-12.67712 37.023744-15.490048l8.964096-1.86112-0.080384-31.030784z m11.915264 82.460672c-27.779584 0-50.540032 22.761472-50.540032 50.541056 0 27.779584 22.760448 50.53952 50.53952 50.53952 27.780096 0 50.540544-22.759936 50.540544-50.53952 0-27.779584-22.760448-50.541056-50.540032-50.541056z m0 22.443008c15.650816 0 28.098048 12.447232 28.098048 28.09856 0 15.650304-12.447232 28.096512-28.09856 28.096512-15.650304 0-28.096512-12.446208-28.096512-28.097024s12.446208-28.098048 28.097024-28.098048z" p-id="3745"></path></svg>